#!OML:ASF C:\Vicon Data\Big\jianyuan-13\jianyuan\Session 1\Capture.male.ASF
:FULLY-SPECIFIED
:DEGREES
56
root -8.464958 17.847207 -19.727345 2.982755 3.182622 -0.328896
lowerback -9.257218 1.091547 1.480709 
upperback 0.820618 1.266245 0.364756 
thorax 6.082076 0.665009 -0.269934 
lowerneck -4.362603 -2.351952 4.523812 
upperneck 4.656082 -3.124197 -5.967894 
head 2.079825 -1.638610 -2.825898 
rclavicle 0.000000 0.000000 
rhumerus -20.268886 -5.393622 -86.575195 
rradius 34.455194 
rwrist 24.089966 
rhand -18.113339 -20.381480 
rfingers 0.000000 
rthumb 8.160976 -50.203884 
lclavicle 0.000000 0.000000 
lhumerus -56.358846 51.335383 46.414920 
lradius 19.793451 
lwrist -87.866621 
lhand -19.860254 4.310407 
lfingers 0.000000 
lthumb 6.474690 34.191393 
rfemur -24.804232 3.892644 23.728232 
rtibia 36.627807 
rfoot -12.196337 -5.290831 
rtoes -28.572697 
lfemur -32.404625 3.356815 -14.444520 
ltibia 67.331284 
lfoot -10.034613 3.226709 
ltoes -47.647225 
57
root -8.479352 17.841796 -19.651558 2.841281 3.232264 -0.347176
lowerback -9.010783 1.170492 1.527224 
upperback 0.860658 1.373645 0.315852 
thorax 5.988697 0.720148 -0.336182 
lowerneck -4.361592 -2.480205 4.618716 
upperneck 4.718045 -3.295726 -6.052162 
head 2.087962 -1.724692 -2.877589 
rclavicle 0.000000 0.000000 
rhumerus -19.454275 -4.458929 -86.795350 
rradius 35.521077 
rwrist 22.927432 
rhand -18.310420 -20.469629 
rfingers 0.000000 
rthumb 7.970731 -50.299263 
lclavicle 0.000000 0.000000 
lhumerus -55.779155 49.633212 47.377451 
lradius 19.888789 
lwrist -86.162486 
lhand -19.445278 4.144748 
lfingers 0.000000 
lthumb 6.875337 34.013064 
rfemur -24.415255 4.056346 23.855383 
rtibia 36.766862 
rfoot -12.534121 -5.510062 
rtoes -28.288057 
lfemur -33.979743 3.395966 -14.609850 
ltibia 66.747329 
lfoot -10.508604 2.896387 
ltoes -48.102676 
58
root -8.490039 17.837900 -19.576537 2.743070 3.403622 -0.259196
lowerback -8.784935 1.212998 1.486850 
upperback 0.895237 1.443486 0.236659 
thorax 5.899349 0.754508 -0.390681 
lowerneck -4.361196 -2.648156 4.625243 
upperneck 4.780420 -3.518350 -6.064119 
head 2.094797 -1.835922 -2.889442 
rclavicle 0.000000 0.000000 
rhumerus -18.637956 -3.557952 -86.894432 
rradius 36.642126 
rwrist 21.803569 
rhand -18.193565 -20.524809 
rfingers 0.000000 
rthumb 8.083547 -50.350241 
lclavicle 0.000000 0.000000 
lhumerus -55.062413 47.680037 48.636522 
lradius 20.061806 
lwrist -84.363447 
lhand -19.257041 4.091572 
lfingers 0.000000 
lthumb 7.057059 33.953959 
rfemur -24.081616 3.927456 23.869747 
rtibia 36.921412 
rfoot -12.919317 -5.473998 
rtoes -27.729790 
lfemur -35.634199 3.305375 -14.903632 
ltibia 66.040838 
lfoot -10.919387 2.768481 
ltoes -48.856588 
59
root -8.507564 17.835604 -19.497186 2.567469 3.408089 -0.217373
lowerback -8.508649 1.308418 1.417912 
upperback 0.948206 1.584457 0.205446 
thorax 5.800007 0.822289 -0.370668 
lowerneck -4.282139 -2.765273 4.462393 
upperneck 4.757443 -3.673073 -5.860519 
head 2.067933 -1.909483 -2.790976 
rclavicle 0.000000 0.000000 
rhumerus -17.841337 -2.851543 -86.874757 
rradius 37.656274 
rwrist 20.946714 
rhand -18.313015 -19.969525 
rfingers 0.000000 
rthumb 7.968251 -49.799272 
lclavicle 0.000000 0.000000 
lhumerus -54.799470 46.036550 49.395391 
lradius 20.222780 
lwrist -82.752582 
lhand -19.250773 4.008383 
lfingers 0.000000 
lthumb 7.063083 33.870563 
rfemur -23.637724 3.858979 23.973769 
rtibia 37.046740 
rfoot -13.401779 -5.525530 
rtoes -26.983413 
lfemur -37.122661 3.353346 -15.154092 
ltibia 65.215645 
lfoot -11.268436 2.764279 
ltoes -49.757308 
60
root -8.516347 17.835496 -19.421020 2.436380 3.586020 -0.125560
lowerback -8.243919 1.355241 1.424245 
upperback 1.021439 1.656787 0.093892 
thorax 5.731783 0.860293 -0.485963 
lowerneck -4.275532 -2.844559 4.462950 
upperneck 4.680162 -3.790836 -5.678556 
head 2.036781 -1.963135 -2.730138 
rclavicle 0.000000 0.000000 
rhumerus -16.945282 -2.188971 -86.911403 
rradius 38.739839 
rwrist 20.044736 
rhand -18.578622 -19.856408 
rfingers 0.000000 
rthumb 7.711899 -49.695758 
lclavicle 0.000000 0.000000 
lhumerus -54.414310 44.339523 50.269293 
lradius 20.446366 
lwrist -81.142216 
lhand -19.401424 4.053355 
lfingers 0.000000 
lthumb 6.917681 33.920341 
rfemur -23.190543 3.690352 23.980585 
rtibia 37.042013 
rfoot -13.676265 -5.569858 
rtoes -27.151613 
lfemur -38.683784 3.178673 -15.467698 
ltibia 64.250579 
lfoot -11.330292 2.716262 
ltoes -49.720084 
61
root -8.535848 17.842290 -19.332321 2.235923 3.518682 -0.108659
lowerback -8.015289 1.464940 1.326081 
upperback 1.103446 1.817051 0.081013 
thorax 5.688787 0.936765 -0.427765 
lowerneck -4.146267 -2.938388 4.403393 
upperneck 4.587301 -3.916485 -5.572292 
head 1.977763 -2.022364 -2.680074 
rclavicle 0.000000 0.000000 
rhumerus -16.171939 -1.355822 -86.845126 
rradius 39.920946 
rwrist 19.039802 
rhand -18.722351 -19.944196 
rfingers 0.000000 
rthumb 7.573142 -49.788641 
lclavicle 0.000000 0.000000 
lhumerus -54.411559 42.788200 50.866410 
lradius 20.693800 
lwrist -79.620278 
lhand -19.498695 3.869999 
lfingers 0.000000 
lthumb 6.823793 33.739981 
rfemur -22.562624 3.909736 24.098524 
rtibia 36.935272 
rfoot -13.997017 -5.769138 
rtoes -26.667627 
lfemur -40.033970 3.237844 -15.641884 
ltibia 63.142446 
lfoot -11.572855 2.691403 
ltoes -49.922078 
62
root -8.550389 17.849858 -19.257686 2.181604 3.639874 -0.099365
lowerback -7.783948 1.520060 1.324706 
upperback 1.152120 1.896765 0.034028 
thorax 5.611722 0.977003 -0.471086 
lowerneck -4.148027 -3.093278 4.461612 
upperneck 4.544337 -4.126277 -5.626344 
head 1.950476 -2.127318 -2.712183 
rclavicle 0.000000 0.000000 
rhumerus -15.319155 -0.813099 -86.767687 
rradius 41.037853 
rwrist 18.561894 
rhand -18.734624 -19.697103 
rfingers 0.000000 
rthumb 7.561277 -49.541979 
lclavicle 0.000000 0.000000 
lhumerus -54.075457 41.058333 51.858664 
lradius 20.988617 
lwrist -77.470686 
lhand -19.378163 3.771361 
lfingers 0.000000 
lthumb 6.940108 33.637557 
rfemur -22.086007 3.933801 24.201924 
rtibia 36.713626 
rfoot -14.182389 -5.924064 
rtoes -26.580120 
lfemur -41.601699 3.050777 -15.835958 
ltibia 61.884803 
lfoot -11.914589 3.049292 
ltoes -50.662852 
63
root -8.568411 17.864817 -19.172188 2.015589 3.608205 -0.033964
lowerback -7.590920 1.638169 1.229390 
upperback 1.280529 2.069238 -0.026914 
thorax 5.639212 1.060878 -0.462543 
lowerneck -4.093448 -3.231200 4.410779 
upperneck 4.402713 -4.316359 -5.498410 
head 1.886351 -2.218989 -2.658467 
rclavicle 0.000000 0.000000 
rhumerus -14.466504 -0.207171 -86.643115 
rradius 42.264182 
rwrist 17.819836 
rhand -18.890226 -19.631071 
rfingers 0.000000 
rthumb 7.411074 -49.481228 
lclavicle 0.000000 0.000000 
lhumerus -54.152602 39.765364 52.205699 
lradius 21.216840 
lwrist -76.083487 
lhand -19.663972 3.591380 
lfingers 0.000000 
lthumb 6.664222 33.466464 
rfemur -21.407269 4.042973 24.256113 
rtibia 36.456416 
rfoot -14.411774 -6.052596 
rtoes -26.230799 
lfemur -42.866394 2.974417 -16.050535 
ltibia 60.440474 
lfoot -11.939847 3.251590 
ltoes -50.301272 
